<svg xmlns="http://www.w3.org/2000/svg" width="424pt" height="170pt" viewBox="0 0 424 170"><clipPath id="a"><path transform="matrix(1 0 0 -1 -300 445)" d="M0 0h1024v720H0z"/></clipPath><g data-name="Layer 1" clip-path="url(#a)"><clipPath id="b"><path transform="matrix(1 0 0 -1 -300 445)" d="M0 720h1024V0H0z"/></clipPath><g clip-path="url(#b)"><path d="M19.628 45.969c1.706-1.736 4.599-1.79 6.372-.122 1.752 1.649 1.805 4.623.114 6.356-1.723 1.765-4.636 1.819-6.341.117-1.775-1.772-1.84-4.626-.145-6.351m.762 11.362c4.33 1.378 7.708-.447 11.09-5.996 2.252-.425 3.985.46 5.537 2.032 4.06 4.114 8.165 8.183 12.264 12.258.588.585 1.247 1.1 1.965 1.729l1.812-1.812c-.395-.53-.676-1.021-1.062-1.41-4.58-4.602-9.105-9.265-13.818-13.728-1.11-1.05-2.843-1.473-4.336-2.068-.636-.254-1.393-.206-2.134-.301-2.55-5.963-5.658-8.166-10.232-7.422-4.042.657-6.927 3.914-7.21 8.135-.247 3.71 2.378 7.39 6.124 8.583" fill="#a293c0"/><path d="M32.755 65.523c-.565.736-1.79.8-2.462.123-.75-.755-.812-1.603-.177-2.42.825-.832 1.739-.875 2.51-.187.784.698.772 1.645.129 2.484m-1.245-6.001c-2.705-.054-4.948 2.158-4.911 4.843.038 2.852 2.339 4.986 5.172 4.77.63-.048 1.256-.185 2.159-.323l7.94 7.94 1.866-1.866c-.213-.373-.284-.587-.426-.731-1.897-1.933-3.775-3.886-5.721-5.77-1.066-1.032-1.71-1.957-1.39-3.675.502-2.706-1.897-5.131-4.69-5.188M45.362 20.235c1.725-1.695 4.58-1.63 6.351.145 1.702 1.705 1.648 4.618-.118 6.34-1.733 1.692-4.706 1.639-6.355-.113-1.669-1.773-1.614-4.666.122-6.372m2.066 12.08c.095.742.047 1.498.3 2.134.595 1.493 1.02 3.227 2.07 4.336 4.462 4.713 9.124 9.238 13.728 13.818.388.386.88.668 1.41 1.062.618-.62 1.143-1.144 1.811-1.811-.629-.72-1.145-1.377-1.73-1.966-4.074-4.1-8.143-8.204-12.257-12.264-1.573-1.552-2.458-3.285-2.032-5.536 5.55-3.383 7.374-6.76 5.995-11.091-1.192-3.746-4.872-6.371-8.582-6.123-4.22.282-7.478 3.167-8.135 7.208-.744 4.575 1.46 7.683 7.422 10.233" fill="#a293c0"/><path d="M62.619 30.723c.817-.636 1.666-.573 2.42.177.678.672.614 1.897-.122 2.461-.84.644-1.787.655-2.485-.129-.688-.77-.645-1.684.187-2.509m1.484 6.082c1.718-.319 2.643.324 3.676 1.39 1.883 1.946 3.836 3.824 5.769 5.722.144.142.359.212.73.426l1.867-1.867-7.94-7.94c.138-.903.276-1.527.324-2.158.215-2.834-1.918-5.134-4.771-5.173-2.685-.037-4.897 2.207-4.842 4.911.056 2.792 2.482 5.191 5.187 4.69M149.594 124.466c-1.706 1.736-4.6 1.791-6.372.121-1.752-1.648-1.805-4.62-.114-6.355 1.723-1.765 4.635-1.819 6.34-.117 1.776 1.772 1.84 4.626.146 6.351m-.762-11.362c-4.331-1.378-7.708.447-11.091 5.996-2.251.425-3.984-.459-5.536-2.032-4.06-4.113-8.165-8.183-12.264-12.258-.59-.585-1.246-1.1-1.966-1.729l-1.811 1.812c.394.53.676 1.021 1.062 1.41 4.58 4.603 9.105 9.265 13.818 13.728 1.109 1.05 2.842 1.474 4.335 2.068.637.254 1.393.206 2.135.301 2.55 5.963 5.658 8.166 10.232 7.422 4.04-.657 6.927-3.914 7.209-8.135.248-3.71-2.377-7.39-6.123-8.583" fill="#a293c0"/><path d="M136.466 104.912c.565-.737 1.79-.8 2.462-.123.75.755.812 1.604.176 2.421-.824.832-1.737.874-2.509.187-.784-.699-.773-1.646-.129-2.485m1.245 6.001c2.705.054 4.948-2.158 4.911-4.843-.038-2.852-2.339-4.985-5.172-4.77-.632.048-1.256.185-2.159.323l-7.94-7.94-1.866 1.866c.213.373.284.587.426.732 1.897 1.932 3.776 3.885 5.721 5.77 1.067 1.032 1.71 1.956 1.39 3.674-.502 2.706 1.897 5.131 4.69 5.188M123.86 150.2c-1.726 1.696-4.58 1.63-6.352-.144-1.702-1.706-1.648-4.618.117-6.341 1.734-1.691 4.707-1.638 6.356.114 1.67 1.773 1.613 4.666-.122 6.372m-2.066-12.08c-.095-.742-.047-1.498-.3-2.135-.595-1.492-1.019-3.226-2.069-4.335-4.463-4.713-9.125-9.238-13.729-13.818-.388-.386-.879-.668-1.409-1.062l-1.812 1.81c.63.72 1.145 1.378 1.73 1.967 4.074 4.099 8.143 8.204 12.257 12.264 1.573 1.552 2.458 3.285 2.032 5.536-5.549 3.383-7.374 6.76-5.996 11.09 1.193 3.747 4.873 6.372 8.584 6.124 4.22-.282 7.477-3.168 8.134-7.208.744-4.575-1.459-7.684-7.422-10.233" fill="#a293c0"/><path d="M106.603 139.712c-.817.636-1.666.573-2.421-.177-.677-.672-.613-1.896.124-2.461.839-.644 1.786-.655 2.484.128.688.772.645 1.685-.187 2.51m-1.484-6.082c-1.718.319-2.643-.324-3.676-1.39-1.883-1.946-3.836-3.824-5.77-5.722-.144-.142-.358-.213-.73-.426l-1.866 1.867 7.94 7.94c-.14.903-.276 1.527-.324 2.158-.215 2.834 1.918 5.134 4.77 5.173 2.686.037 4.898-2.207 4.843-4.911-.056-2.793-2.482-5.191-5.187-4.69M11.752 107.643a4.429 4.429 0 0 1-6.188.119c-1.785-1.678-1.808-4.552-.05-6.351 1.796-1.838 4.533-1.882 6.328-.103 1.774 1.76 1.735 4.496-.09 6.335m19.453.29c3.699-3.78 7.47-7.488 11.202-11.236.439-.443.819-.945 1.277-1.478l-1.93-1.93c-.743.68-1.386 1.227-1.982 1.82-3.596 3.58-7.186 7.167-10.77 10.76-2.177 2.184-4.645 2.955-7.6 1.69-1.307-.558-2.655-1.022-4.023-1.543-.5-6.283-2.666-9.205-7.222-10.002-3.881-.68-7.727 1.357-9.31 4.929-1.535 3.467-.66 7.776 2.085 9.999 1.593 1.29 3.41 2.04 5.502 2.116 3.38.122 5.783-1.687 7.852-4.09 1.37.487 2.595.873 3.782 1.353 4.26 1.72 7.927.893 11.137-2.388M28.227 132.121c-1.21 1.226-3.393 1.263-4.65.078-1.245-1.174-1.32-3.382-.155-4.644 1.257-1.363 3.458-1.397 4.783-.074 1.216 1.214 1.226 3.42.022 4.64m24.717-27.679-1.985-1.986-21.413 21.413c-5.241-1.127-7.945-.233-9.621 2.973-1.266 2.423-.7 5.824 1.286 7.72 2.2 2.101 5.363 2.431 8.112.847 2.885-1.663 3.576-4.343 2.296-9.642l21.325-21.325M61.652 157.543c1.838-1.825 4.575-1.864 6.334-.089 1.78 1.794 1.736 4.53-.102 6.327-1.799 1.758-4.673 1.735-6.35-.05a4.429 4.429 0 0 1 .118-6.188m10.946-30.654c-3.748 3.73-7.456 7.502-11.236 11.201-3.282 3.21-4.11 6.876-2.388 11.137.48 1.187.866 2.411 1.353 3.782-2.404 2.07-4.212 4.471-4.09 7.852.075 2.091.825 3.908 2.115 5.502 2.223 2.745 6.532 3.62 10 2.084 3.572-1.582 5.608-5.429 4.93-9.309-.799-4.556-3.72-6.722-10.004-7.223-.52-1.367-.984-2.715-1.543-4.023-1.264-2.955-.493-5.422 1.691-7.6 3.593-3.583 7.18-7.173 10.76-10.769.593-.596 1.14-1.239 1.82-1.982l-1.93-1.93c-.533.458-1.036.838-1.478 1.278M41.74 145.874c-1.262 1.164-3.47 1.09-4.644-.156-1.185-1.257-1.148-3.44.078-4.65 1.22-1.204 3.426-1.193 4.64.023 1.323 1.324 1.289 3.526-.074 4.783m25.099-27.538-1.986-1.985-21.325 21.326c-5.3-1.28-7.98-.59-9.642 2.295-1.584 2.749-1.254 5.91.848 8.112 1.895 1.986 5.297 2.553 7.719 1.286 3.206-1.676 4.1-4.38 2.973-9.621l21.413-21.413M107.462 11.932c-1.838 1.825-4.575 1.864-6.335.09-1.78-1.795-1.735-4.532.103-6.328 1.799-1.758 4.673-1.736 6.35.05a4.43 4.43 0 0 1-.118 6.188M96.516 42.586c3.748-3.73 7.456-7.502 11.236-11.2 3.28-3.21 4.11-6.877 2.388-11.138-.48-1.187-.866-2.412-1.353-3.782 2.404-2.069 4.212-4.47 4.09-7.852-.075-2.09-.825-3.909-2.116-5.502-2.223-2.745-6.532-3.62-10-2.084-3.571 1.582-5.608 5.428-4.928 9.308.797 4.557 3.719 6.723 10.003 7.224.52 1.366.984 2.715 1.543 4.023 1.264 2.954.493 5.422-1.691 7.6a4201.44 4201.44 0 0 0-10.76 10.768c-.593.597-1.14 1.24-1.82 1.983l1.93 1.93c.533-.458 1.036-.838 1.478-1.278M127.375 23.602c1.262-1.164 3.47-1.09 4.644.156 1.185 1.257 1.148 3.44-.078 4.65-1.221 1.204-3.426 1.193-4.64-.023-1.323-1.324-1.29-3.526.074-4.783m-25.1 27.538 1.987 1.985 21.325-21.326c5.299 1.28 7.98.59 9.642-2.295 1.584-2.75 1.254-5.911-.848-8.112-1.896-1.986-5.297-2.553-7.72-1.286-3.205 1.676-4.1 4.379-2.972 9.62L102.276 51.14M163.6 68.065c-1.795 1.838-4.532 1.882-6.327.103-1.774-1.76-1.735-4.497.09-6.335a4.43 4.43 0 0 1 6.188-.12c1.785 1.68 1.808 4.553.05 6.352m2.582-9.531c-1.594-1.29-3.411-2.04-5.502-2.116-3.381-.122-5.783 1.687-7.852 4.09-1.371-.487-2.595-.873-3.782-1.352-4.262-1.722-7.928-.894-11.138 2.387-3.698 3.78-7.47 7.488-11.201 11.237-.44.442-.82.944-1.277 1.477l1.93 1.93c.743-.68 1.386-1.226 1.982-1.82 3.596-3.58 7.186-7.167 10.769-10.76 2.178-2.183 4.645-2.955 7.6-1.691 1.308.56 2.656 1.023 4.023 1.544.5 6.283 2.666 9.205 7.223 10.002 3.88.68 7.727-1.357 9.309-4.93 1.536-3.466.66-7.775-2.084-9.998M140.887 37.354c1.21-1.227 3.393-1.263 4.65-.078 1.246 1.174 1.32 3.382.156 4.644-1.258 1.363-3.459 1.397-4.784.074-1.216-1.214-1.226-3.419-.022-4.64m-24.717 27.68 1.985 1.985 21.413-21.413c5.241 1.126 7.945.232 9.621-2.973 1.266-2.423.7-5.824-1.286-7.72-2.2-2.1-5.363-2.43-8.112-.847-2.885 1.662-3.576 4.343-2.296 9.641L116.17 65.033" fill="#a293c0"/><path d="M99.638 100.576c-.631-.315-1.135-.778-1.45-1.555 3.699-3.91 5.653-8.553 5.632-13.996 0-5.422-2.018-10.045-5.78-14.08.547-.568.967-1.01 1.472-1.534 8.784 8.595 8.72 23.452.126 31.165m-4.33-4.266c-.546-.4-1.155-.757-1.281-1.492 5.17-6.956 5.17-12.105-.021-19.544.294-.652.756-1.114 1.408-1.43 6.284 5.906 6.22 17.275-.105 22.466m-5.59-5.737c2.9-3.657 2.837-7.376-.021-11.012.378-.652.777-1.093 1.492-1.492 3.888 4.203 3.867 10.087-.021 13.996-.652-.273-1.135-.757-1.45-1.492m-5.15-1.345c-.146 0-.293 0-.42-.021v35.515c-.588-.42-1.134-.798-1.596-1.24A57650.026 57650.026 0 0 1 45.88 86.79c-.525-.546-.945-1.198-1.492-1.891l39.76-39.761v35.81c.064-.021.148-.021.232-.021 2.186-.063 4.182 1.849 4.245 4.056.063 2.206-1.828 4.182-4.056 4.245m-.126 35.683c-.063-.02-.105-.063-.147-.105.042-.021.063-.063.147-.126zm26.08-59.661c-7.376-7.377-14.753-14.753-22.108-22.15-1.156-1.135-2.312-2.081-4.077-2.06-1.786.042-3.068.967-4.245 2.165C67.61 55.688 55.107 68.17 42.624 80.654c-2.963 2.963-2.963 5.527-.021 8.469L61.39 107.91c.02 0 .02-.021.02-.021 6.369 6.368 12.737 12.756 19.125 19.103 2.648 2.627 5.17 2.606 7.818-.042 12.263-12.243 26.894-26.666 39.264-39.061a4.364 4.364 0 0 0 1.267-2.836 4.415 4.415 0 0 0-1.31-3.403c-5.177-5.12-12.254-11.585-17.05-16.4" fill="#4e2a84"/><path d="m68.923 69.41 1.462 1.533c-3.753 4.027-5.775 8.656-5.787 14.079-.011 5.44 1.951 10.1 5.644 14.009a2.922 2.922 0 0 1-1.452 1.548c-8.603-7.708-8.659-22.57.133-31.17M84.15 80.948v8.259c-2.06-.168-3.762-1.933-3.804-4.014-.063-2.164 1.66-4.035 3.804-4.245" fill="#4e2a84"/><path d="M73.012 73.853c.65.3 1.12.778 1.411 1.424-5.19 7.438-5.199 12.583-.02 19.54-.132.733-.733 1.085-1.278 1.485-6.338-5.181-6.392-16.553-.113-22.45" fill="#4e2a84"/><path d="M77.244 78.072c.702.388 1.115.842 1.487 1.493-2.864 3.625-2.933 7.345-.03 11.003-.317.742-.783 1.217-1.446 1.495-3.876-3.9-3.902-9.802-.011-13.99M186.304 98.522h10.752V20.016h-10.752zM260.245 20.016h-10.659l-13.949 63.676-13.857-63.676h-10.752l-1.459 78.506h8.921l.857-56.98 13.185 56.98h6.21l13.277-56.98.857 56.98h8.83zM284.668 90.667v-28.78h15.803v-7.74h-15.803V28.174h19.487v-8.157h-30.447v78.506h30.633v-7.855zM352.607 48.124v-6.187c0-4.727-.625-8.76-1.9-12.12-1.25-3.36-3.314-5.954-6.21-7.761-2.873-1.808-6.766-2.711-11.655-2.711-5.56 0-9.872 1.089-12.953 3.244-3.059 2.178-5.19 5.213-6.396 9.152-1.18 3.94-1.784 8.574-1.784 13.857v27.737c0 4.843.603 9.222 1.784 13.16 1.205 3.94 3.337 7.092 6.396 9.409 3.081 2.317 7.392 3.499 12.953 3.499 5.167 0 9.153-1.02 12.003-3.06 2.85-2.038 4.843-4.888 6.001-8.526 1.182-3.661 1.761-7.878 1.761-12.652v-5.816h-10.38v5.816c0 3.105-.163 5.816-.487 8.134-.325 2.34-1.113 4.17-2.41 5.49-1.298 1.322-3.429 1.97-6.396 1.97-2.525 0-4.518-.486-6.024-1.436-1.483-.973-2.549-2.618-3.198-4.912-.626-2.271-.95-5.4-.95-9.34V43.954c0-3.221.208-6.048.626-8.481.417-2.41 1.344-4.287 2.757-5.607 1.414-1.321 3.684-1.993 6.79-1.993 3.035 0 5.19.625 6.487 1.853 1.298 1.229 2.086 2.943 2.364 5.168.301 2.247.44 4.796.44 7.716v5.515z" fill="#4e2a84"/><path d="M186.304 123.927h1.622v-12.573h-1.622zM198.454 115.074c-.705-.723-1.623-1.093-2.769-1.093-.829 0-1.569.21-2.204.635-.635.44-1.076 1.04-1.322 1.85v-2.327h-1.623v9.788h1.623v-5.185c0-1.111.264-1.94.793-2.522.547-.582 1.252-.864 2.151-.864.847 0 1.535.265 2.028.776.494.529.742 1.287.742 2.257v5.538h1.621v-5.68c0-1.374-.352-2.432-1.04-3.173M205.667 122.498c-.564 0-.97-.106-1.2-.335-.228-.247-.352-.67-.352-1.305v-5.308h2.539v-1.411h-2.54v-2.433h-1.64v2.433h-1.462v1.411h1.463v5.273c0 1.128.247 1.922.74 2.398.495.476 1.235.705 2.24.705h1.217v-1.428zM209.758 118.6c.036-1.075.37-1.886.97-2.433.617-.546 1.358-.828 2.257-.828.547 0 1.076.123 1.552.352.476.247.847.6 1.11 1.094.283.476.407 1.093.37 1.816zm7.9-.105c0-.83-.194-1.57-.564-2.257a4.213 4.213 0 0 0-1.622-1.622c-.706-.388-1.534-.6-2.487-.6-.952 0-1.781.212-2.504.6a4.191 4.191 0 0 0-1.693 1.763c-.423.758-.617 1.64-.617 2.663s.194 1.922.617 2.663c.406.758.97 1.34 1.693 1.745.723.406 1.552.6 2.504.6.81 0 1.552-.141 2.204-.441a4.17 4.17 0 0 0 1.605-1.252c.406-.53.67-1.128.794-1.816h-1.728a2.54 2.54 0 0 1-.988 1.605c-.53.387-1.181.599-1.957.599-.882 0-1.605-.282-2.205-.846-.6-.564-.916-1.393-.952-2.522h7.83c.035-.247.07-.547.07-.882M219.774 123.927h1.622v-13.191h-1.622zM224.007 123.927h1.622v-13.191h-1.622zM228.221 123.927h1.622v-9.787h-1.622zm1.623-13.385c-.194-.177-.459-.265-.794-.265s-.599.088-.811.265a.97.97 0 0 0-.3.723c0 .3.106.546.3.723.212.194.476.282.811.282.335 0 .6-.088.794-.282.211-.177.299-.423.299-.723s-.088-.529-.299-.723M239.825 120.929c-.282.546-.67.952-1.182 1.252-.493.3-1.075.44-1.71.44-1.005 0-1.8-.316-2.398-.951-.6-.635-.9-1.5-.9-2.628 0-1.111.3-1.993.9-2.627.599-.635 1.393-.953 2.398-.953.635 0 1.217.14 1.71.44.512.283.9.706 1.182 1.253.3.547.44 1.182.44 1.887 0 .723-.14 1.34-.44 1.887m.44-6.79v2.505c-.264-.794-.722-1.446-1.392-1.905-.653-.476-1.464-.723-2.416-.723a4.55 4.55 0 0 0-2.31.6 4.218 4.218 0 0 0-1.605 1.763c-.37.759-.564 1.64-.564 2.663s.194 1.922.564 2.663c.388.758.935 1.34 1.605 1.746.67.405 1.446.599 2.31.599.952 0 1.763-.23 2.416-.705.67-.476 1.128-1.111 1.393-1.905v2.645c0 1.023-.3 1.799-.864 2.364-.582.564-1.305.846-2.187.846-.83 0-1.517-.176-2.046-.547-.53-.388-.881-.9-1.075-1.552h-1.605c.229 1.076.758 1.94 1.587 2.575.829.635 1.905.952 3.227.952.917 0 1.71-.194 2.399-.581a3.887 3.887 0 0 0 1.604-1.641c.388-.705.582-1.498.582-2.416v-9.945zM245.573 118.6c.053-1.075.37-1.886.987-2.433.6-.546 1.358-.828 2.24-.828.564 0 1.076.123 1.552.352a2.7 2.7 0 0 1 1.13 1.094c.263.476.386 1.093.351 1.816zm7.9-.105c0-.83-.194-1.57-.564-2.257a4.213 4.213 0 0 0-1.622-1.622c-.706-.388-1.534-.6-2.487-.6-.934 0-1.763.212-2.486.6a4.127 4.127 0 0 0-1.71 1.763c-.407.758-.618 1.64-.618 2.663s.211 1.922.617 2.663c.406.758.97 1.34 1.711 1.745.723.406 1.552.6 2.486.6.83 0 1.552-.141 2.204-.441.67-.3 1.2-.705 1.605-1.252.406-.53.67-1.128.794-1.816h-1.729c-.123.67-.44 1.199-.97 1.605-.528.387-1.18.599-1.975.599-.863 0-1.604-.282-2.204-.846-.599-.564-.917-1.393-.952-2.522h7.83c.053-.247.07-.547.07-.882M263.508 115.074c-.706-.723-1.623-1.093-2.751-1.093-.847 0-1.57.21-2.204.635-.635.44-1.076 1.04-1.34 1.85v-2.327h-1.623v9.788h1.623v-5.185c0-1.111.282-1.94.81-2.522.53-.582 1.253-.864 2.134-.864.865 0 1.535.265 2.028.776.512.529.758 1.287.758 2.257v5.538h1.623v-5.68c0-1.374-.353-2.432-1.058-3.173M270.738 122.498c-.564 0-.97-.106-1.2-.335-.228-.247-.352-.67-.352-1.305v-5.308h2.522v-1.411h-2.522v-2.433h-1.64v2.433h-1.463v1.411h1.463v5.273c0 1.128.247 1.922.74 2.398.495.476 1.235.705 2.24.705h1.199v-1.428zM288.76 111.582l-4.32 10.37-4.374-10.37h-1.957v12.344h1.622v-9.822l3.968 9.822h1.446l3.932-9.857v9.857h1.623v-12.344zM300.558 121.034c-.3.547-.706.935-1.2 1.2a3.318 3.318 0 0 1-1.604.387 3.382 3.382 0 0 1-1.622-.388c-.494-.264-.882-.652-1.2-1.199-.3-.547-.44-1.199-.44-1.993 0-.793.14-1.463.44-2.01.318-.529.706-.935 1.2-1.199a3.382 3.382 0 0 1 1.622-.388c.582 0 1.11.123 1.605.388.493.264.899.67 1.199 1.2.3.546.459 1.216.459 2.01 0 .793-.16 1.445-.46 1.992m1.465-4.656a4.317 4.317 0 0 0-1.746-1.763 5.378 5.378 0 0 0-2.522-.599c-.952 0-1.781.211-2.522.6a4.256 4.256 0 0 0-1.763 1.762c-.423.76-.635 1.641-.635 2.663 0 1.023.212 1.923.635 2.663a4.315 4.315 0 0 0 1.763 1.746c.74.406 1.57.6 2.522.6.935 0 1.78-.194 2.522-.6a4.378 4.378 0 0 0 1.746-1.746c.423-.74.635-1.64.635-2.663 0-1.022-.212-1.904-.635-2.663M312.126 121.67c-.6.634-1.411.951-2.416.951-.635 0-1.199-.14-1.711-.44a3.042 3.042 0 0 1-1.199-1.253c-.282-.547-.423-1.164-.423-1.887 0-.705.141-1.34.423-1.887.282-.546.688-.97 1.199-1.252.512-.299 1.076-.44 1.711-.44 1.005 0 1.816.317 2.416.952.599.635.899 1.516.899 2.627 0 1.13-.3 1.993-.899 2.628m1.957-5.29c-.388-.776-.917-1.358-1.587-1.764a4.618 4.618 0 0 0-2.328-.6c-.952 0-1.745.247-2.415.723a3.643 3.643 0 0 0-1.359 1.905v-5.908h-1.622v13.191h1.622v-2.486c.247.775.706 1.41 1.359 1.886.67.494 1.463.723 2.415.723.882 0 1.64-.193 2.328-.599.67-.406 1.199-.988 1.587-1.746.388-.74.582-1.64.582-2.663 0-1.022-.194-1.904-.582-2.663M316.781 123.927h1.64v-9.787h-1.64zm1.64-13.385c-.211-.177-.476-.265-.811-.265-.335 0-.6.088-.811.265a.97.97 0 0 0-.3.723c0 .3.106.546.3.723.211.194.476.282.811.282.335 0 .6-.088.811-.282a.944.944 0 0 0 .3-.723.97.97 0 0 0-.3-.723M321.013 123.927h1.622v-13.191h-1.622zM326.34 118.6c.052-1.075.387-1.886.986-2.433.618-.546 1.358-.828 2.258-.828.546 0 1.075.123 1.534.352.476.247.864.6 1.13 1.094.281.476.386 1.093.351 1.816zm7.9-.105c0-.83-.177-1.57-.547-2.257a4.341 4.341 0 0 0-1.623-1.622c-.723-.388-1.552-.6-2.486-.6-.953 0-1.78.212-2.504.6-.723.405-1.288.987-1.71 1.763-.407.758-.6 1.64-.6 2.663s.193 1.922.6 2.663c.422.758.987 1.34 1.71 1.745.723.406 1.551.6 2.504.6.811 0 1.551-.141 2.204-.441.652-.3 1.182-.705 1.587-1.252a3.753 3.753 0 0 0 .793-1.816h-1.728c-.105.67-.44 1.199-.97 1.605-.528.387-1.18.599-1.975.599-.864 0-1.587-.282-2.186-.846-.6-.564-.917-1.393-.97-2.522h7.83c.052-.247.07-.547.07-.882M348.153 120.929c-.282.546-.67.952-1.182 1.252-.511.3-1.075.44-1.728.44-.987 0-1.798-.316-2.398-.951-.6-.635-.9-1.5-.9-2.628 0-1.111.3-1.993.9-2.627.6-.635 1.411-.953 2.398-.953.653 0 1.217.14 1.728.44.512.283.9.706 1.182 1.253.282.547.423 1.182.423 1.887 0 .723-.141 1.34-.423 1.887m.423-6.79v2.505a3.606 3.606 0 0 0-1.375-1.905c-.653-.476-1.464-.723-2.416-.723a4.55 4.55 0 0 0-2.31.6c-.688.405-1.217.987-1.605 1.763-.388.759-.582 1.64-.582 2.663s.194 1.922.582 2.663c.388.758.917 1.34 1.605 1.746.67.405 1.446.599 2.31.599.952 0 1.763-.23 2.416-.705a3.672 3.672 0 0 0 1.375-1.905v2.487h1.623v-9.787zM360.709 115.074c-.705-.723-1.622-1.093-2.77-1.093-.827 0-1.568.21-2.203.635-.635.44-1.076 1.04-1.322 1.85v-2.327h-1.623v9.788h1.623v-5.185c0-1.111.264-1.94.81-2.522.53-.582 1.235-.864 2.134-.864.847 0 1.535.265 2.028.776.494.529.759 1.287.759 2.257v5.538h1.622v-5.68c0-1.374-.353-2.432-1.058-3.173M371.642 120.929a3.12 3.12 0 0 1-1.182 1.252c-.511.3-1.093.44-1.728.44-1.005 0-1.798-.316-2.398-.951-.599-.635-.899-1.5-.899-2.628 0-1.111.3-1.993.899-2.627.6-.635 1.393-.953 2.398-.953.635 0 1.217.14 1.728.44.494.283.9.706 1.182 1.253.282.547.423 1.182.423 1.887 0 .723-.141 1.34-.423 1.887m.423-10.193v5.908c-.264-.794-.723-1.446-1.375-1.905-.671-.476-1.464-.723-2.416-.723-.882 0-1.64.212-2.328.6-.67.405-1.199.987-1.587 1.763-.388.759-.582 1.64-.582 2.663s.194 1.922.582 2.663c.388.758.917 1.34 1.587 1.746.688.405 1.446.599 2.328.599.952 0 1.745-.23 2.416-.705a3.768 3.768 0 0 0 1.375-1.905v2.487h1.623v-13.191zM193.235 134.084v-1.323h-6.93v12.574h6.93v-1.323h-5.308v-4.391h4.779v-1.252h-4.78v-4.285zM210.11 136.482c-.687-.741-1.604-1.111-2.75-1.111a3.83 3.83 0 0 0-2.17.653c-.634.44-1.092 1.058-1.375 1.85-.264-.828-.705-1.445-1.305-1.868-.617-.423-1.34-.635-2.17-.635a3.78 3.78 0 0 0-2.115.617c-.617.424-1.04 1.006-1.27 1.78v-2.22h-1.622v9.786h1.623v-5.202c0-1.093.247-1.921.776-2.486.51-.564 1.199-.846 2.08-.846.794 0 1.447.264 1.923.776.476.51.705 1.252.705 2.204v5.554h1.622v-5.202c0-1.093.265-1.921.776-2.486.529-.564 1.199-.846 2.063-.846.812 0 1.464.264 1.94.776.459.51.706 1.252.706 2.204v5.554h1.622v-5.695c0-1.376-.353-2.434-1.058-3.157M221.026 143.077c-.6.635-1.393.952-2.416.952a3.526 3.526 0 0 1-1.71-.44c-.512-.3-.9-.724-1.182-1.27-.3-.529-.44-1.164-.44-1.87 0-.723.14-1.357.44-1.904.282-.547.67-.952 1.182-1.252a3.526 3.526 0 0 1 1.71-.44c1.023 0 1.816.316 2.416.951.6.653.9 1.517.9 2.645 0 1.111-.3 1.993-.9 2.628m1.975-5.308a4.28 4.28 0 0 0-1.605-1.746c-.669-.405-1.446-.617-2.31-.617-.952 0-1.763.247-2.416.723a3.718 3.718 0 0 0-1.375 1.904v-5.907h-1.622v13.208h1.622v-2.504c.247.793.705 1.411 1.375 1.905.653.476 1.464.723 2.416.723.864 0 1.641-.212 2.31-.618a4.224 4.224 0 0 0 1.605-1.728c.37-.758.565-1.64.565-2.663 0-1.022-.195-1.922-.565-2.68M226.793 139.991c.053-1.058.388-1.869.987-2.434.6-.546 1.358-.829 2.24-.829.564 0 1.076.124 1.552.353.476.247.864.617 1.128 1.093.283.494.388 1.094.353 1.817zm7.9-.106c0-.81-.176-1.569-.547-2.24a4.227 4.227 0 0 0-1.622-1.622c-.723-.405-1.552-.617-2.504-.617-.935 0-1.763.212-2.486.617-.723.406-1.288.988-1.71 1.746-.407.758-.618 1.658-.618 2.68 0 1.023.211 1.905.617 2.663a4.363 4.363 0 0 0 1.711 1.728c.723.406 1.551.618 2.486.618.83 0 1.57-.159 2.222-.459a3.957 3.957 0 0 0 1.587-1.234 3.91 3.91 0 0 0 .793-1.817h-1.728a2.513 2.513 0 0 1-.97 1.587c-.529.406-1.18.6-1.975.6-.864 0-1.587-.282-2.186-.847-.617-.546-.935-1.393-.97-2.504h7.83a4.34 4.34 0 0 0 .07-.899M244.198 142.32c-.282.546-.67.97-1.181 1.27a3.5 3.5 0 0 1-1.73.44c-.986 0-1.797-.318-2.397-.953-.6-.635-.9-1.516-.9-2.627 0-1.129.3-1.993.9-2.645.6-.635 1.41-.953 2.398-.953a3.5 3.5 0 0 1 1.729.441 3 3 0 0 1 1.18 1.252c.283.547.442 1.182.442 1.905 0 .705-.16 1.34-.441 1.87m.44-10.194v5.908a3.708 3.708 0 0 0-1.392-1.905c-.653-.476-1.464-.723-2.416-.723-.864 0-1.64.212-2.31.618-.688.405-1.217.987-1.605 1.745-.388.76-.582 1.658-.582 2.681 0 1.023.194 1.904.582 2.662.388.76.917 1.323 1.605 1.73.67.404 1.446.616 2.31.616.952 0 1.763-.247 2.416-.723.67-.476 1.128-1.11 1.393-1.905v2.504h1.623v-13.208zM256.225 142.32c-.282.546-.688.97-1.181 1.27a3.549 3.549 0 0 1-1.728.44c-1.006 0-1.8-.318-2.4-.953-.598-.635-.898-1.516-.898-2.627 0-1.129.3-1.993.899-2.645.6-.635 1.393-.953 2.399-.953a3.55 3.55 0 0 1 1.728.441c.493.3.899.705 1.18 1.252.283.547.425 1.182.425 1.905 0 .705-.142 1.34-.424 1.87m.424-10.194v5.908a3.774 3.774 0 0 0-1.376-1.905c-.67-.476-1.464-.723-2.416-.723-.882 0-1.64.212-2.328.618-.67.405-1.2.987-1.587 1.745-.388.76-.582 1.658-.582 2.681 0 1.023.194 1.904.582 2.662a4.194 4.194 0 0 0 1.587 1.73c.688.404 1.446.616 2.328.616.952 0 1.746-.247 2.416-.723a3.77 3.77 0 0 0 1.376-1.905v2.504h1.622v-13.208zM261.956 139.991c.053-1.058.388-1.869.987-2.434.6-.546 1.358-.829 2.24-.829a3.52 3.52 0 0 1 1.552.353 2.81 2.81 0 0 1 1.129 1.093c.264.494.388 1.094.352 1.817zm7.9-.106c0-.81-.176-1.569-.564-2.24-.37-.687-.9-1.216-1.623-1.622-.705-.405-1.533-.617-2.486-.617-.935 0-1.763.212-2.486.617a4.302 4.302 0 0 0-1.711 1.746c-.405.758-.617 1.658-.617 2.68 0 1.023.212 1.905.617 2.663a4.256 4.256 0 0 0 1.71 1.728c.724.406 1.552.618 2.487.618.829 0 1.57-.159 2.222-.459a3.95 3.95 0 0 0 1.587-1.234c.406-.547.67-1.147.794-1.817h-1.73a2.512 2.512 0 0 1-.968 1.587c-.53.406-1.182.6-1.975.6-.865 0-1.605-.282-2.205-.847-.6-.546-.917-1.393-.952-2.504h7.83c.052-.247.07-.546.07-.899M279.361 142.32c-.282.546-.67.97-1.182 1.27a3.493 3.493 0 0 1-1.728.44c-.987 0-1.798-.318-2.398-.953-.6-.635-.9-1.516-.9-2.627 0-1.129.3-1.993.9-2.645.6-.635 1.411-.953 2.398-.953.653 0 1.217.16 1.728.441.512.3.9.705 1.182 1.252.282.547.441 1.182.441 1.905 0 .705-.159 1.34-.44 1.87m.44-10.194v5.908a3.708 3.708 0 0 0-1.393-1.905c-.653-.476-1.464-.723-2.416-.723-.864 0-1.64.212-2.31.618-.688.405-1.217.987-1.605 1.745-.388.76-.582 1.658-.582 2.681 0 1.023.194 1.904.582 2.662.388.76.917 1.323 1.605 1.73.67.404 1.446.616 2.31.616.952 0 1.763-.247 2.416-.723.67-.476 1.128-1.11 1.393-1.905v2.504h1.622v-13.208zM296.572 143.2c-.705.495-1.587.742-2.628.742-.81 0-1.552-.194-2.204-.6a4.216 4.216 0 0 1-1.516-1.71c-.388-.723-.565-1.587-.565-2.575 0-1.005.177-1.87.565-2.61.37-.758.881-1.322 1.516-1.71.652-.406 1.393-.6 2.204-.6 1.041 0 1.923.247 2.628.74a4.21 4.21 0 0 1 1.552 1.976h1.71c-.388-1.305-1.075-2.328-2.063-3.086-1.005-.76-2.275-1.13-3.809-1.13-1.164 0-2.204.266-3.12.812-.9.529-1.606 1.288-2.1 2.275-.51.97-.758 2.08-.758 3.333 0 1.234.247 2.328.758 3.298a5.558 5.558 0 0 0 2.1 2.274c.916.529 1.956.812 3.12.812 1.534 0 2.804-.388 3.81-1.146.987-.741 1.674-1.781 2.062-3.086h-1.71a4.259 4.259 0 0 1-1.552 1.992M309.251 142.425c-.3.546-.687.952-1.18 1.217a3.609 3.609 0 0 1-1.624.388 3.53 3.53 0 0 1-1.604-.388 2.955 2.955 0 0 1-1.199-1.217c-.3-.529-.459-1.199-.459-1.975 0-.811.158-1.482.46-2.011.298-.546.704-.952 1.198-1.199a3.34 3.34 0 0 1 1.604-.405c.582 0 1.13.141 1.623.405.494.247.881.653 1.181 1.199.318.529.46 1.2.46 2.011 0 .776-.142 1.446-.46 1.975m1.464-4.656a4.37 4.37 0 0 0-1.746-1.745c-.74-.406-1.587-.618-2.522-.618-.934 0-1.78.212-2.52.618-.742.405-1.324.987-1.765 1.745-.423.759-.635 1.658-.635 2.681 0 1.023.212 1.904.635 2.662a4.487 4.487 0 0 0 1.764 1.729c.74.405 1.587.617 2.521.617.935 0 1.781-.212 2.522-.617a4.33 4.33 0 0 0 1.746-1.729c.423-.758.635-1.639.635-2.662s-.212-1.922-.635-2.681M328.261 136.482c-.688-.741-1.605-1.111-2.75-1.111a3.83 3.83 0 0 0-2.17.653c-.652.44-1.11 1.058-1.375 1.85-.265-.828-.706-1.445-1.323-1.868-.6-.423-1.323-.635-2.152-.635-.81 0-1.498.212-2.116.617-.617.424-1.04 1.006-1.269 1.78v-2.22h-1.64v9.786h1.64v-5.202c0-1.093.247-1.921.758-2.486.53-.564 1.217-.846 2.081-.846.811 0 1.463.264 1.922.776.476.51.723 1.252.723 2.204v5.554h1.622v-5.202c0-1.093.265-1.921.776-2.486.512-.564 1.2-.846 2.063-.846.812 0 1.464.264 1.923.776.476.51.705 1.252.705 2.204v5.554h1.622v-5.695c0-1.376-.335-2.434-1.04-3.157M339.177 143.077c-.6.635-1.411.952-2.416.952a3.475 3.475 0 0 1-1.71-.44 3.094 3.094 0 0 1-1.2-1.27c-.282-.529-.423-1.164-.423-1.87 0-.723.14-1.357.423-1.904a3.044 3.044 0 0 1 1.2-1.252 3.475 3.475 0 0 1 1.71-.44c1.005 0 1.817.316 2.416.951.6.653.899 1.517.899 2.645 0 1.111-.3 1.993-.9 2.628m1.958-5.308c-.388-.758-.916-1.34-1.587-1.746a4.502 4.502 0 0 0-2.327-.617c-.953 0-1.746.247-2.416.723a3.785 3.785 0 0 0-1.358 1.904v-2.486h-1.623v14.425h1.623v-7.142c.247.793.705 1.411 1.358 1.905.67.476 1.463.723 2.416.723.864 0 1.64-.212 2.327-.618.67-.405 1.199-.97 1.587-1.728.389-.758.582-1.64.582-2.663 0-1.022-.193-1.922-.582-2.68M350.922 135.547v5.202c0 1.093-.264 1.94-.811 2.522-.53.582-1.235.864-2.134.864-.864 0-1.534-.265-2.028-.794-.493-.529-.758-1.287-.758-2.257v-5.537h-1.623v5.696c0 1.375.353 2.416 1.058 3.156.706.723 1.623 1.094 2.75 1.094.848 0 1.57-.212 2.223-.635.635-.424 1.076-1.04 1.323-1.834v2.31h1.622v-9.787zM358.822 143.906c-.564 0-.97-.123-1.2-.353-.246-.229-.352-.67-.352-1.287v-5.326h2.522v-1.393h-2.522v-2.45h-1.64v2.45h-1.463v1.393h1.463v5.291c0 1.111.247 1.904.74 2.38.495.477 1.235.723 2.24.723h1.2v-1.428zM361.802 145.334h1.622v-9.787h-1.622zm1.622-13.384c-.211-.194-.476-.282-.811-.282-.335 0-.599.088-.793.282-.212.177-.3.423-.3.723s.088.529.3.723c.194.176.458.265.793.265s.6-.089.811-.265a.97.97 0 0 0 .3-.723c0-.3-.106-.546-.3-.723M373.934 136.482c-.706-.741-1.622-1.111-2.75-1.111-.848 0-1.57.229-2.205.653-.635.423-1.076 1.04-1.34 1.834v-2.31h-1.623v9.786h1.623v-5.202c0-1.093.282-1.94.811-2.521.53-.565 1.252-.864 2.133-.864.864 0 1.535.264 2.028.793.512.512.76 1.27.76 2.24v5.554h1.621v-5.695c0-1.376-.353-2.434-1.058-3.157M384.868 142.32c-.282.546-.67.97-1.182 1.27a3.493 3.493 0 0 1-1.728.44c-.987 0-1.798-.318-2.398-.953-.6-.635-.9-1.516-.9-2.627 0-1.129.3-1.993.9-2.645.6-.635 1.41-.953 2.398-.953.653 0 1.217.16 1.728.441.512.3.9.705 1.182 1.252.282.547.423 1.182.423 1.905 0 .705-.141 1.34-.423 1.87m.423-6.773v2.487a3.67 3.67 0 0 0-1.375-1.905c-.653-.476-1.464-.723-2.416-.723-.864 0-1.64.212-2.31.618-.688.405-1.217.987-1.605 1.745-.388.76-.582 1.658-.582 2.681 0 1.023.194 1.904.582 2.662.388.76.917 1.323 1.605 1.73.67.404 1.446.616 2.31.616.952 0 1.763-.247 2.416-.723a3.667 3.667 0 0 0 1.375-1.905v2.663c0 1.005-.282 1.8-.864 2.363-.564.565-1.305.847-2.17.847-.845 0-1.515-.194-2.045-.565a2.773 2.773 0 0 1-1.093-1.552h-1.587c.212 1.094.74 1.94 1.587 2.593.829.635 1.905.952 3.227.952.899 0 1.71-.212 2.399-.6a4.104 4.104 0 0 0 1.604-1.64c.388-.705.565-1.498.565-2.398v-9.946zM395.537 144.065V132.76h-1.622v12.573h6.084v-1.27zM409.027 142.32c-.282.546-.67.97-1.181 1.27a3.5 3.5 0 0 1-1.73.44c-.986 0-1.797-.318-2.397-.953-.6-.635-.9-1.516-.9-2.627 0-1.129.3-1.993.9-2.645.6-.635 1.41-.953 2.398-.953a3.5 3.5 0 0 1 1.729.441 3 3 0 0 1 1.18 1.252c.283.547.425 1.182.425 1.905 0 .705-.142 1.34-.424 1.87m.424-6.773v2.487a3.678 3.678 0 0 0-1.376-1.905c-.652-.476-1.464-.723-2.416-.723-.864 0-1.64.212-2.31.618-.688.405-1.217.987-1.605 1.745-.388.76-.582 1.658-.582 2.681 0 1.023.194 1.904.582 2.662.388.76.917 1.323 1.605 1.73.67.404 1.446.616 2.31.616.952 0 1.764-.247 2.416-.723a3.674 3.674 0 0 0 1.376-1.905v2.504h1.622v-9.787zM421.018 143.077c-.6.635-1.41.952-2.416.952a3.475 3.475 0 0 1-1.71-.44 3.094 3.094 0 0 1-1.2-1.27c-.282-.529-.423-1.164-.423-1.87 0-.723.141-1.357.423-1.904a3.044 3.044 0 0 1 1.2-1.252 3.475 3.475 0 0 1 1.71-.44c1.005 0 1.816.316 2.416.951.6.653.9 1.517.9 2.645 0 1.111-.3 1.993-.9 2.628m1.957-5.308c-.387-.758-.916-1.34-1.587-1.746-.688-.405-1.446-.617-2.327-.617-.935 0-1.746.247-2.416.723a3.785 3.785 0 0 0-1.358 1.904v-5.907h-1.622v13.208h1.622v-2.504c.247.793.705 1.411 1.358 1.905.67.476 1.481.723 2.416.723.881 0 1.64-.212 2.327-.618.671-.405 1.2-.97 1.587-1.728.388-.758.582-1.64.582-2.663 0-1.022-.194-1.922-.582-2.68" fill="#a293c0"/></g></g></svg>